<mxfile host="app.diagrams.net" agent="Mozilla/5.0 (Macintosh; Intel Mac OS X 10_15_7) AppleWebKit/605.1.15 (KHTML, like Gecko) Version/18.4 Safari/605.1.15" version="26.2.9">
  <diagram name="第 1 页" id="DTJ4RcQTUTXimh4tSHO0">
    <mxGraphModel dx="788" dy="478" grid="1" gridSize="10" guides="1" tooltips="1" connect="1" arrows="1" fold="1" page="1" pageScale="1" pageWidth="827" pageHeight="1169" math="0" shadow="0">
      <root>
        <mxCell id="0" />
        <mxCell id="1" parent="0" />
        <mxCell id="9U5FuJxFJRCpnrYWyfff-9" style="edgeStyle=orthogonalEdgeStyle;rounded=0;orthogonalLoop=1;jettySize=auto;html=1;exitX=1;exitY=0.5;exitDx=0;exitDy=0;curved=1;fontSize=21;" edge="1" parent="1" source="9U5FuJxFJRCpnrYWyfff-4" target="9U5FuJxFJRCpnrYWyfff-6">
          <mxGeometry relative="1" as="geometry" />
        </mxCell>
        <mxCell id="9U5FuJxFJRCpnrYWyfff-10" style="edgeStyle=orthogonalEdgeStyle;rounded=0;orthogonalLoop=1;jettySize=auto;html=1;exitX=0;exitY=0.5;exitDx=0;exitDy=0;curved=1;fontSize=21;" edge="1" parent="1" source="9U5FuJxFJRCpnrYWyfff-4" target="9U5FuJxFJRCpnrYWyfff-7">
          <mxGeometry relative="1" as="geometry" />
        </mxCell>
        <mxCell id="9U5FuJxFJRCpnrYWyfff-11" style="edgeStyle=orthogonalEdgeStyle;rounded=0;orthogonalLoop=1;jettySize=auto;html=1;exitX=0.5;exitY=1;exitDx=0;exitDy=0;fontSize=21;" edge="1" parent="1" source="9U5FuJxFJRCpnrYWyfff-4" target="9U5FuJxFJRCpnrYWyfff-5">
          <mxGeometry relative="1" as="geometry" />
        </mxCell>
        <mxCell id="9U5FuJxFJRCpnrYWyfff-4" value="中药资源" style="ellipse;whiteSpace=wrap;html=1;fontSize=21;" vertex="1" parent="1">
          <mxGeometry x="250" y="160" width="120" height="80" as="geometry" />
        </mxCell>
        <mxCell id="9U5FuJxFJRCpnrYWyfff-5" value="用途" style="ellipse;whiteSpace=wrap;html=1;fontSize=21;" vertex="1" parent="1">
          <mxGeometry x="250" y="270" width="120" height="80" as="geometry" />
        </mxCell>
        <mxCell id="9U5FuJxFJRCpnrYWyfff-6" value="生物活性" style="ellipse;whiteSpace=wrap;html=1;fontSize=21;" vertex="1" parent="1">
          <mxGeometry x="370" y="80" width="120" height="80" as="geometry" />
        </mxCell>
        <mxCell id="9U5FuJxFJRCpnrYWyfff-7" value="化学成分" style="ellipse;whiteSpace=wrap;html=1;fontSize=21;" vertex="1" parent="1">
          <mxGeometry x="130" y="90" width="120" height="80" as="geometry" />
        </mxCell>
      </root>
    </mxGraphModel>
  </diagram>
</mxfile>
